<?xml version="1.0" encoding="utf-8"?>
<!-- Generator: Adobe Illustrator 16.0.0, SVG Export Plug-In . SVG Version: 6.00 Build 0)  -->
<!DOCTYPE svg PUBLIC "-//W3C//DTD SVG 1.1//EN" "http://www.w3.org/Graphics/SVG/1.1/DTD/svg11.dtd">
<svg version="1.1" xmlns="http://www.w3.org/2000/svg" xmlns:xlink="http://www.w3.org/1999/xlink" x="0px" y="0px" width="600px"
	 height="570.729px" viewBox="0 0 600 570.729" style="enable-background:new 0 0 600 570.729;" xml:space="preserve">
<g id="Layer_1">
	<g>
		<path style="display:none;fill:#414141;" d="M400.985,489.157c1.418,0.076,2.733,0.198,4.05,0.208
			c3.65,0.028,7.303,0.01,10.954,0.01c0,0-1.263-12.074-8.782-19.241c-2.167-2.065-4.908-3.984-7.992-5.751l-4.986,14.055
			C397.698,480.865,400.246,484.166,400.985,489.157z"/>
		<path style="fill:#414141;" d="M447.394,169.209c0.13-20.002-7.925-34.424-23.307-45.873
			c-16.714-12.441-35.866-19.455-55.705-24.717c-4.522-1.199-9.062-2.314-13.613-3.358c-9.702-2.301-19.464-4.14-29.269-5.622
			c-10.697-1.664-21.459-2.919-32.275-3.762c-11.542-1.002-23.118-1.707-34.698-2.289c-28.273-1.421-56.618-1.356-84.923-2.224
			c-9.722-0.298-16.665,3.397-20.999,12.062c0,117.318,0,234.638,0,351.956c4.476,8.458,11.323,12.14,21.051,12.099
			c55.77-0.232,111.537,0.111,167.01,6.953c16.307,2.012,32.574,4.489,47.889,10.962c2.047,0.865,3.97,1.851,5.674,3.042
			l4.986-14.055c-7.618-4.365-17.382-7.771-26.156-9.943c-31.512-7.8-63.795-9.53-96.005-10.875
			c-34.614-1.445-69.286-1.51-103.932-2.193c-1.425-0.028-2.848-0.233-4.156-0.347c0-114.725,0-228.951,0-343.761
			c63.834,0.633,127.333,0.311,189.939,14.85c0.004-0.016,0.008-0.029,0.012-0.045c10.537,2.765,20.929,6.157,31.108,10.392
			c10.032,4.174,19.684,9.686,28.678,15.808c8.642,5.882,12.622,14.678,12.592,25.723c-0.227,84.482-0.124,168.966-0.124,253.45
			c0,2.124,0,4.249,0,6.647c5.461,0,10.373,0,15.998,0c0-2.229,0-4.329,0-6.429C447.168,334.842,446.855,252.023,447.394,169.209z"
			/>
		<path style="fill:#414141;" d="M368.382,190.286c-4.522-1.199-9.062-2.314-13.613-3.358c-9.702-2.301-19.464-4.14-29.269-5.622
			c-10.697-1.664-21.459-2.919-32.275-3.762c-11.542-1.002-23.118-1.707-34.698-2.289c-28.273-1.421-40.898-0.779-69.203-1.646
			l-1.069,15.575c63.834,0.633,108.045,0.058,170.65,14.597c0.004-0.016,0.008-0.029,0.012-0.045
			c10.537,2.765,20.929,6.157,31.108,10.392l5.01-13.588C389.518,196.97,388.221,195.548,368.382,190.286z"/>
		<path style="fill:#414141;" d="M368.382,230.286c-4.522-1.199-9.062-2.314-13.613-3.358c-9.702-2.301-19.464-4.14-29.269-5.622
			c-10.697-1.664-21.459-2.919-32.275-3.762c-11.542-1.002-23.118-1.707-34.698-2.289c-28.273-1.421-40.898-0.779-69.203-1.646
			l-1.069,15.575c63.834,0.633,108.045,0.058,170.65,14.597c0.004-0.016,0.008-0.029,0.012-0.045
			c10.537,2.765,20.929,6.157,31.108,10.392l5.01-13.588C389.518,236.97,388.221,235.548,368.382,230.286z"/>
		<path style="fill:#414141;" d="M368.382,270.286c-4.522-1.199-9.062-2.314-13.613-3.358c-9.702-2.301-19.464-4.14-29.269-5.622
			c-10.697-1.664-21.459-2.919-32.275-3.762c-11.542-1.002-23.118-1.707-34.698-2.289c-28.273-1.421-40.898-0.779-69.203-1.646
			l-1.069,15.575c63.834,0.633,108.045,0.058,170.65,14.596c0.004-0.015,0.008-0.029,0.012-0.044
			c10.537,2.765,20.929,6.157,31.108,10.392l5.01-13.588C389.518,276.97,388.221,275.548,368.382,270.286z"/>
		<path style="fill:#414141;" d="M368.382,310.286c-4.522-1.199-9.062-2.315-13.613-3.358c-9.702-2.301-19.464-4.14-29.269-5.623
			c-10.697-1.663-21.459-2.918-32.275-3.762c-11.542-1.001-23.118-1.707-34.698-2.288c-28.273-1.421-40.898-0.779-69.203-1.646
			l-1.069,15.575c63.834,0.633,108.045,0.058,170.65,14.596c0.004-0.015,0.008-0.029,0.012-0.044
			c10.537,2.765,20.929,6.157,31.108,10.392l5.01-13.588C389.518,316.97,388.221,315.547,368.382,310.286z"/>
		<path style="fill:#414141;" d="M368.382,350.286c-4.522-1.199-9.062-2.315-13.613-3.358c-9.702-2.301-19.464-4.14-29.269-5.623
			c-10.697-1.663-21.459-2.918-32.275-3.762c-11.542-1.001-23.118-1.707-34.698-2.288c-28.273-1.421-40.898-0.779-69.203-1.646
			l-1.069,15.575c63.834,0.633,108.045,0.058,170.65,14.596c0.004-0.015,0.008-0.029,0.012-0.044
			c10.537,2.765,20.929,6.157,31.108,10.392l5.01-13.588C389.518,356.97,388.221,355.547,368.382,350.286z"/>
		<path style="fill:#414141;" d="M354.769,386.928c-9.702-2.301-19.464-4.14-29.269-5.623c-10.697-1.663-21.459-2.918-32.275-3.762
			c-11.542-1.001-23.118-1.707-34.698-2.288c-28.273-1.421-40.898-0.779-69.203-1.646l-1.069,15.575
			c63.834,0.633,108.045,0.058,170.65,14.596c0.004-0.015,0.008-0.029,0.012-0.044c10.537,2.765,20.929,6.157,31.108,10.392
			l5.01-13.588c-5.517-3.569-6.813-4.992-26.652-10.253C363.859,389.087,359.32,387.971,354.769,386.928z"/>
		<path style="fill:#414141;" d="M276.516,136.285c-5.993-0.392-11.99-0.729-17.99-1.03c-28.273-1.421-40.898-0.779-69.203-1.646
			l-1.069,15.575c31.994,0.317,59.059,0.332,85.98,2.097L276.516,136.285z"/>
	</g>
</g>
<g id="Layer_2">
	<g>
		<circle style="fill:#FFFFFF;" cx="460.523" cy="388.947" r="102.398"/>
		<g>
			<path style="fill:#414141;" d="M460.523,509.346c-66.388,0-120.398-54.011-120.398-120.398s54.011-120.398,120.398-120.398
				s120.398,54.01,120.398,120.398S526.911,509.346,460.523,509.346z M460.523,304.549c-46.537,0-84.398,37.861-84.398,84.398
				s37.861,84.398,84.398,84.398s84.398-37.861,84.398-84.398S507.061,304.549,460.523,304.549z"/>
			<path style="fill:#FFFFFF;" d="M460.523,277.549c61.426,0,111.398,49.973,111.398,111.398
				c0,61.426-49.973,111.398-111.398,111.398s-111.398-49.973-111.398-111.398C349.125,327.522,399.098,277.549,460.523,277.549
				 M460.523,482.346c51.5,0,93.398-41.898,93.398-93.398s-41.898-93.398-93.398-93.398s-93.398,41.898-93.398,93.398
				S409.023,482.346,460.523,482.346 M460.523,259.549c-71.351,0-129.398,58.047-129.398,129.398s58.048,129.398,129.398,129.398
				s129.398-58.048,129.398-129.398S531.874,259.549,460.523,259.549L460.523,259.549z M460.523,464.346
				c-41.575,0-75.398-33.823-75.398-75.398c0-41.574,33.823-75.398,75.398-75.398s75.398,33.824,75.398,75.398
				C535.922,430.522,502.099,464.346,460.523,464.346L460.523,464.346z"/>
		</g>
	</g>
</g>
<g id="Layer_3">
	
		<line style="fill:none;stroke:#414141;stroke-width:18;stroke-miterlimit:10;" x1="460.073" y1="315.612" x2="460.073" y2="420.778"/>
	
		<line style="fill:none;stroke:#414141;stroke-width:18;stroke-miterlimit:10;" x1="460.073" y1="436.756" x2="460.073" y2="455.207"/>
</g>
</svg>
