<?xml version="1.0" encoding="utf-8"?>
<!-- Generator: Adobe Illustrator 16.0.0, SVG Export Plug-In . SVG Version: 6.00 Build 0)  -->
<!DOCTYPE svg PUBLIC "-//W3C//DTD SVG 1.1//EN" "http://www.w3.org/Graphics/SVG/1.1/DTD/svg11.dtd">
<svg version="1.1" id="Layer_4" xmlns="http://www.w3.org/2000/svg" xmlns:xlink="http://www.w3.org/1999/xlink" x="0px" y="0px"
	 width="241.096px" height="241.096px" viewBox="0 0 241.096 241.096" style="enable-background:new 0 0 241.096 241.096;"
	 xml:space="preserve">
<path style="fill:#EC655F;" d="M120.548,0C53.971,0,0,53.971,0,120.548c0,66.576,53.971,120.547,120.548,120.547
	s120.548-53.972,120.548-120.547C241.096,53.971,187.125,0,120.548,0z M181.959,181.494c-0.781,0.781-1.805,1.172-2.829,1.172
	c-1.024,0-2.047-0.391-2.829-1.172l-55.405-55.405l-55.406,55.405c-0.781,0.781-1.805,1.172-2.829,1.172s-2.047-0.391-2.829-1.172
	c-1.562-1.562-1.562-4.095,0-5.656l55.406-55.406L60.068,65.259c-1.562-1.563-1.562-4.095,0-5.657c1.563-1.562,4.095-1.561,5.657,0
	l55.172,55.173l55.173-55.173c1.563-1.562,4.096-1.561,5.657,0c1.562,1.563,1.562,4.095,0,5.657l-55.173,55.173l55.405,55.406
	C183.521,177.399,183.521,179.933,181.959,181.494z"/>
</svg>
