<?xml version="1.0" encoding="utf-8"?>
<!-- Generator: Adobe Illustrator 16.0.0, SVG Export Plug-In . SVG Version: 6.00 Build 0)  -->
<!DOCTYPE svg PUBLIC "-//W3C//DTD SVG 1.1//EN" "http://www.w3.org/Graphics/SVG/1.1/DTD/svg11.dtd">
<svg version="1.1" xmlns="http://www.w3.org/2000/svg" xmlns:xlink="http://www.w3.org/1999/xlink" x="0px" y="0px"
	 width="241.096px" height="241.096px" viewBox="0 0 241.096 241.096" style="enable-background:new 0 0 241.096 241.096;"
	 xml:space="preserve">
<g id="Layer_2">
	<path style="fill:#959595;" d="M120.548,0C53.971,0,0,53.971,0,120.548c0,66.576,53.971,120.547,120.548,120.547
		s120.548-53.972,120.548-120.547C241.096,53.971,187.125,0,120.548,0z M120.548,233.096C58.489,233.096,8,182.606,8,120.548
		C8,58.489,58.489,8,120.548,8s112.548,50.489,112.548,112.548C233.096,182.606,182.607,233.096,120.548,233.096z"/>
</g>
<g id="Layer_6">
	<path style="fill:#959595;" d="M110.766,151.291c0-5.615,0.395-10.438,1.188-14.471c0.79-4.03,1.978-7.523,3.564-10.476
		c1.583-2.95,3.527-5.471,5.832-7.56c2.302-2.086,4.894-3.996,7.776-5.724c3.024-1.728,6.335-3.49,9.936-5.292
		c3.598-1.799,6.946-3.959,10.044-6.48c3.095-2.518,5.65-5.65,7.668-9.396c2.015-3.743,3.024-8.424,3.024-14.04
		c0-5.184-0.901-9.72-2.7-13.608c-1.802-3.888-4.178-7.128-7.128-9.72c-2.953-2.592-6.338-4.499-10.152-5.724
		c-3.817-1.222-7.742-1.836-11.772-1.836c-8.208,0-15.626,2.16-22.248,6.48c-6.625,4.32-11.593,9.936-14.904,16.848l-7.776-4.752
		c1.87-4.462,4.428-8.424,7.668-11.88c3.24-3.456,6.838-6.372,10.8-8.748c3.959-2.376,8.208-4.175,12.744-5.4
		c4.536-1.222,9.106-1.836,13.716-1.836c5.326,0,10.476,0.864,15.444,2.592c4.968,1.728,9.396,4.286,13.284,7.668
		c3.888,3.385,6.983,7.634,9.288,12.744c2.302,5.113,3.456,11.053,3.456,17.82c0,6.048-0.901,11.161-2.7,15.336
		c-1.802,4.178-4.178,7.705-7.128,10.584c-2.953,2.882-6.301,5.366-10.044,7.452c-3.746,2.089-7.489,3.996-11.232,5.724
		c-3.024,1.441-5.653,2.916-7.884,4.428c-2.234,1.512-4.104,3.493-5.616,5.94c-1.512,2.45-2.666,5.545-3.456,9.288
		c-0.793,3.746-1.188,8.424-1.188,14.039H110.766z M110.981,192.98v-21.168h9.504v21.168H110.981z"/>
</g>
</svg>
