<?xml version="1.0" encoding="utf-8"?>
<!-- Generator: Adobe Illustrator 16.0.0, SVG Export Plug-In . SVG Version: 6.00 Build 0)  -->
<!DOCTYPE svg PUBLIC "-//W3C//DTD SVG 1.1//EN" "http://www.w3.org/Graphics/SVG/1.1/DTD/svg11.dtd">
<svg version="1.1" id="Layer_1" xmlns="http://www.w3.org/2000/svg" xmlns:xlink="http://www.w3.org/1999/xlink" x="0px" y="0px"
	 width="271.333px" height="197.333px" viewBox="0 0 271.333 197.333" style="enable-background:new 0 0 271.333 197.333;"
	 xml:space="preserve">
<path style="fill-rule:evenodd;clip-rule:evenodd;fill:#9F9F9F;" d="M137.56,76.344c-22.184,0.185-36.632-13.882-36.731-35.764
	c-0.095-21.005,15.534-36.842,36.306-36.791c20.3,0.051,36.037,15.428,36.378,35.547C173.875,60.701,158.852,76.167,137.56,76.344z
	 M136.702,67.567c15.562-0.084,28.366-12.875,28.013-27.987c-0.331-14.172-13.943-27.213-28.033-26.855
	c-14.237,0.363-27.194,13.699-27.011,27.805C109.87,56.058,121.46,67.648,136.702,67.567z"/>
<path style="fill-rule:evenodd;clip-rule:evenodd;fill:#A0A0A0;" d="M113.963,93.496c-6.765,1.401-22.233,6.736-28.703,13.561
	s-7.032,8.606-9.412,13.511c-7.427,15.305-8.998,31.832-9.096,51.486c0.162,3.104,0.041,9.167,1.028,15.044
	c0.318,1.896,2.372,5.078,5.444,4.938s2.699-3.51,3.244-5.486c0.453-1.648-0.35-11.243-0.469-16.459s0.496-15.88,2.936-28.912
	c3.709-19.818,13.627-35.263,35.569-39.465c2.382-0.457,6.675-3.245,6.404-5.238S120.729,92.095,113.963,93.496z"/>
<path style="fill-rule:evenodd;clip-rule:evenodd;fill:#A0A0A0;" d="M161.825,93.496c6.765,1.401,22.232,6.736,28.702,13.561
	s7.032,8.606,9.412,13.511c7.427,15.305,8.998,31.832,9.096,51.486c-0.161,3.104-0.041,9.167-1.028,15.044
	c-0.318,1.896-2.371,5.078-5.443,4.938s-2.699-3.51-3.244-5.486c-0.453-1.648,0.35-11.243,0.469-16.459
	c0.118-5.216-0.496-15.88-2.937-28.912c-3.71-19.818-13.628-35.263-35.569-39.465c-2.382-0.457-6.676-3.245-6.404-5.238
	S155.06,92.095,161.825,93.496z"/>
</svg>
