<?xml version="1.0" encoding="utf-8"?>
<!-- Generator: Adobe Illustrator 16.0.0, SVG Export Plug-In . SVG Version: 6.00 Build 0)  -->
<!DOCTYPE svg PUBLIC "-//W3C//DTD SVG 1.1//EN" "http://www.w3.org/Graphics/SVG/1.1/DTD/svg11.dtd">
<svg version="1.1" id="Layer_1" xmlns="http://www.w3.org/2000/svg" xmlns:xlink="http://www.w3.org/1999/xlink" x="0px" y="0px"
	 width="241.096px" height="241.096px" viewBox="0 0 241.096 241.096" style="enable-background:new 0 0 241.096 241.096;"
	 xml:space="preserve">
<g id="Layer_2">
	<g>
		<path style="fill:#959595;" d="M120.548,0C53.971,0,0,53.971,0,120.548c0,66.576,53.971,120.547,120.548,120.547
			s120.548-53.972,120.548-120.547C241.096,53.971,187.125,0,120.548,0z M120.548,233.096C58.489,233.096,8,182.606,8,120.548
			C8,58.489,58.489,8,120.548,8c62.059,0,112.548,50.488,112.548,112.548C233.096,182.606,182.607,233.096,120.548,233.096z"/>
	</g>
</g>
<g id="Layer_5">
	
		<line style="fill:none;stroke:#959595;stroke-width:8;stroke-linecap:round;stroke-miterlimit:10;" x1="87.691" y1="185.796" x2="203.927" y2="69.561"/>
	
		<line style="fill:none;stroke:#959595;stroke-width:8;stroke-linecap:round;stroke-miterlimit:10;" x1="87.254" y1="185.7" x2="31.293" y2="129.738"/>
</g>
</svg>
