<?xml version="1.0" encoding="utf-8"?>
<!-- Generator: Adobe Illustrator 16.0.0, SVG Export Plug-In . SVG Version: 6.00 Build 0)  -->
<!DOCTYPE svg PUBLIC "-//W3C//DTD SVG 1.1//EN" "http://www.w3.org/Graphics/SVG/1.1/DTD/svg11.dtd">
<svg version="1.1" id="Layer_1" xmlns="http://www.w3.org/2000/svg" xmlns:xlink="http://www.w3.org/1999/xlink" x="0px" y="0px"
	 width="241.096px" height="241.096px" viewBox="0 0 241.096 241.096" style="enable-background:new 0 0 241.096 241.096;"
	 xml:space="preserve">
<path style="fill:#FFFFFF;" d="M120.548,8C58.489,8,8,58.489,8,120.548c0,62.058,50.488,112.548,112.548,112.548
	c62.059,0,112.548-50.49,112.548-112.548C233.096,58.489,182.607,8,120.548,8z"/>
<path style="fill:#959595;" d="M120.548,0C53.971,0,0,53.971,0,120.548c0,66.576,53.971,120.547,120.548,120.547
	s120.548-53.972,120.548-120.547C241.096,53.971,187.125,0,120.548,0z M120.548,233.096C58.489,233.096,8,182.606,8,120.548
	C8,58.489,58.489,8,120.548,8c62.059,0,112.548,50.488,112.548,112.548C233.096,182.606,182.607,233.096,120.548,233.096z"/>
<path style="fill:#959595;" d="M87.691,189.796c-1.024,0-2.047-0.391-2.829-1.172c-1.562-1.562-1.562-4.095,0-5.656L201.099,66.732
	c1.561-1.562,4.094-1.562,5.656,0c1.563,1.563,1.563,4.095,0,5.657L90.519,188.624C89.738,189.406,88.714,189.796,87.691,189.796z"
	/>
<path style="fill:#959595;" d="M87.254,189.7c-1.024,0-2.047-0.391-2.829-1.172l-55.961-55.963c-1.562-1.562-1.562-4.095,0-5.656
	c1.563-1.562,4.096-1.562,5.657,0l55.961,55.963c1.562,1.562,1.562,4.095,0,5.656C89.302,189.31,88.278,189.7,87.254,189.7z"/>
</svg>
