<?xml version="1.0" encoding="utf-8"?>
<!-- Generator: Adobe Illustrator 16.0.0, SVG Export Plug-In . SVG Version: 6.00 Build 0)  -->
<!DOCTYPE svg PUBLIC "-//W3C//DTD SVG 1.1//EN" "http://www.w3.org/Graphics/SVG/1.1/DTD/svg11.dtd">
<svg version="1.1" id="Layer_5" xmlns="http://www.w3.org/2000/svg" xmlns:xlink="http://www.w3.org/1999/xlink" x="0px" y="0px"
	 width="241.096px" height="241.096px" viewBox="0 0 241.096 241.096" style="enable-background:new 0 0 241.096 241.096;"
	 xml:space="preserve">
<path style="fill:#82C561;" d="M120.548,0C53.971,0,0,53.971,0,120.548c0,66.576,53.971,120.547,120.548,120.547
	s120.548-53.972,120.548-120.547C241.096,53.971,187.125,0,120.548,0z M90.52,188.624c-0.781,0.781-1.805,1.172-2.829,1.172
	c-0.349,0-0.693-0.063-1.032-0.152c-0.817-0.123-1.604-0.486-2.233-1.115l-55.961-55.961c-1.562-1.563-1.562-4.095,0-5.657
	c1.563-1.562,4.096-1.561,5.657,0l53.398,53.4L201.098,66.732c1.563-1.562,4.095-1.562,5.657,0c1.562,1.563,1.562,4.095,0,5.657
	L90.52,188.624z"/>
</svg>
